name rise45.9887peak57.8056fall74.9286.mot
datacolumns 19
datarows 20
range 23.40491000000000 23.43657600000000
endheader
time	ground_force1_vx	ground_force1_vy	ground_force1_vz	ground_force1_px	ground_force1_py	ground_force1_pz	ground_force2_vx	ground_force2_vy	ground_force2_vz	ground_force2_px	ground_force2_py	ground_force2_pz	ground_torque1_x	ground_torque1_y	ground_torque1_z	ground_torque2_x	ground_torque2_y	ground_torque2_z	
23.40491000000000	-54.18550400000000	776.17956000000004	58.20766000000000	0.05587400000000	0.00000000000000	0.13560100000000	-2.75325400000000	7.14846100000000	2.31149700000000	0.00000000000000	0.00000000000000	0.00000000000000	0.00000000000000	20.91144200000000	0.00000000000000	0.00000000000000	0.58101800000000	0.00000000000000	
23.40658200000000	-54.56387000000000	774.17879700000003	57.93214500000000	0.05521900000000	0.00000000000000	0.13555200000000	-3.92458900000000	11.20302100000000	3.41182500000000	0.00000000000000	0.00000000000000	0.00000000000000	0.00000000000000	20.87834100000000	0.00000000000000	0.00000000000000	0.87175200000000	0.00000000000000	
23.40824300000000	-54.95002800000000	772.13197500000001	57.64410400000000	0.05456600000000	0.00000000000000	0.13549800000000	-5.19777600000000	15.89413200000000	4.63897300000000	0.00000000000000	0.00000000000000	0.00000000000000	0.00000000000000	20.84682800000000	0.00000000000000	0.00000000000000	1.19931900000000	0.00000000000000	
23.40991300000000	-55.34453600000000	770.03756099999998	57.34345900000000	0.05391200000000	0.00000000000000	0.13544100000000	-6.52903500000000	21.14337600000000	5.95934100000000	0.00000000000000	0.00000000000000	0.00000000000000	0.00000000000000	20.81703500000000	0.00000000000000	0.00000000000000	1.55563100000000	0.00000000000000	
23.41158100000000	-55.74790300000000	767.89385500000003	57.03012800000000	0.05325900000000	0.00000000000000	0.13538100000000	-7.86867400000000	26.84755200000000	7.33307500000000	0.28808600000000	0.00000000000000	-0.05821700000000	0.00000000000000	20.78908900000000	0.00000000000000	0.00000000000000	3.58533900000000	0.00000000000000	
23.41324200000000	-56.16058700000000	765.69898799999999	56.70403300000000	0.05260600000000	0.00000000000000	0.13531700000000	-9.16473300000000	32.88727900000000	8.71702500000000	0.29187300000000	0.00000000000000	-0.05894500000000	0.00000000000000	20.76310200000000	0.00000000000000	0.00000000000000	4.31827100000000	0.00000000000000	
23.41491100000000	-56.58299100000000	763.45093099999997	56.36509500000000	0.05195100000000	0.00000000000000	0.13524900000000	-10.36692400000000	39.13719000000000	10.06806200000000	0.29526400000000	0.00000000000000	-0.05963400000000	0.00000000000000	20.73917700000000	0.00000000000000	0.00000000000000	5.04921400000000	0.00000000000000	
23.41657500000000	-57.01545900000000	761.14749200000006	56.01323800000000	0.05129500000000	0.00000000000000	0.13517700000000	-11.43031100000000	45.47627800000000	11.34628000000000	0.29831200000000	0.00000000000000	-0.06028800000000	0.00000000000000	20.71740500000000	0.00000000000000	0.00000000000000	5.75758000000000	0.00000000000000	
23.41824700000000	-57.45827200000000	758.78632500000003	55.64838900000000	0.05063800000000	0.00000000000000	0.13510100000000	-12.31828900000000	51.79700900000000	12.51767800000000	0.30106000000000	0.00000000000000	-0.06091300000000	0.00000000000000	20.69786300000000	0.00000000000000	0.00000000000000	6.42529500000000	0.00000000000000	
23.41990800000000	-57.91164500000000	756.36493299999995	55.27047700000000	0.04997900000000	0.00000000000000	0.13502200000000	-13.00453600000000	58.01225700000000	13.55606000000000	0.30354600000000	0.00000000000000	-0.06151200000000	0.00000000000000	20.68061800000000	0.00000000000000	0.00000000000000	7.03785400000000	0.00000000000000	
23.42157600000000	-58.37572100000000	753.88067000000001	54.87943700000000	0.04931700000000	0.00000000000000	0.13494000000000	-13.47387700000000	64.05957600000001	14.44402600000000	0.30580200000000	0.00000000000000	-0.06208800000000	0.00000000000000	20.66571800000000	0.00000000000000	0.00000000000000	7.58495100000000	0.00000000000000	
23.42324800000000	-58.85057100000000	751.33075499999995	54.47520600000000	0.04865300000000	0.00000000000000	0.13485400000000	-13.72209800000000	69.90277600000000	15.17310300000000	0.30785400000000	0.00000000000000	-0.06264400000000	0.00000000000000	20.65320200000000	0.00000000000000	0.00000000000000	8.06065600000000	0.00000000000000	
23.42490900000000	-59.33618800000000	748.71227099999999	54.05773000000000	0.04798700000000	0.00000000000000	0.13476400000000	-13.75489100000000	75.53108600000000	15.74311300000000	0.30972700000000	0.00000000000000	-0.06318000000000	0.00000000000000	20.64308900000000	0.00000000000000	0.00000000000000	8.46320900000000	0.00000000000000	
23.42658000000000	-59.83248700000000	746.02218100000005	53.62696000000000	0.04731700000000	0.00000000000000	0.13467000000000	-13.58616400000000	80.95635200000000	16.16097600000000	0.31143900000000	0.00000000000000	-0.06370000000000	0.00000000000000	20.63538500000000	0.00000000000000	0.00000000000000	8.79450500000000	0.00000000000000	
23.42825000000000	-60.33929700000000	743.25732700000003	53.18285300000000	0.04664400000000	0.00000000000000	0.13457300000000	-13.23595300000000	86.20885699999999	16.43912700000000	0.31300800000000	0.00000000000000	-0.06420400000000	0.00000000000000	20.63008000000000	0.00000000000000	0.00000000000000	9.05935800000000	0.00000000000000	
23.42990900000000	-60.85636500000000	740.41444799999999	52.72537800000000	0.04596900000000	0.00000000000000	0.13447300000000	-12.72819200000000	91.33233799999999	16.59376100000000	0.31445000000000	0.00000000000000	-0.06469400000000	0.00000000000000	20.62714400000000	0.00000000000000	0.00000000000000	9.26466600000000	0.00000000000000	
23.43157500000000	-61.38335000000000	737.49018300000000	52.25451000000000	0.04528900000000	0.00000000000000	0.13436900000000	-12.08853300000000	96.37876500000000	16.64307000000000	0.31577800000000	0.00000000000000	-0.06517100000000	0.00000000000000	20.62653400000000	0.00000000000000	0.00000000000000	9.41854100000000	0.00000000000000	
23.43324500000000	-61.91981900000000	734.48108700000000	51.77023800000000	0.04460700000000	0.00000000000000	0.13426200000000	-11.34240400000000	101.40332900000000	16.60561700000000	0.31700300000000	0.00000000000000	-0.06563600000000	0.00000000000000	20.62818400000000	0.00000000000000	0.00000000000000	9.52950100000000	0.00000000000000	
23.43491600000000	-62.46525200000000	731.38363700000002	51.27256000000000	0.04392100000000	0.00000000000000	0.13415200000000	-10.51339800000000	106.46002000000000	16.49896700000000	0.31813500000000	0.00000000000000	-0.06608800000000	0.00000000000000	20.63201400000000	0.00000000000000	0.00000000000000	9.60576200000000	0.00000000000000	
23.43657600000000	-63.01903500000000	728.19424400000003	50.76148900000000	0.04323200000000	0.00000000000000	0.13403800000000	-9.62207600000000	111.59803200000000	16.33861900000000	0.31918400000000	0.00000000000000	-0.06653000000000	0.00000000000000	20.63792400000000	0.00000000000000	0.00000000000000	9.65468200000000	0.00000000000000	
